<?xml version="1.0" encoding="UTF-8" standalone="no"?>
<svg
   xmlns:dc="http://purl.org/dc/elements/1.1/"
   xmlns:cc="http://creativecommons.org/ns#"
   xmlns:rdf="http://www.w3.org/1999/02/22-rdf-syntax-ns#"
   xmlns:svg="http://www.w3.org/2000/svg"
   xmlns="http://www.w3.org/2000/svg"
   viewBox="0 0 2560 1440"
   height="1440"
   width="2560"
   xml:space="preserve"
   id="svg2"
   version="1.1"><metadata
     id="metadata8"><rdf:RDF><cc:Work
         rdf:about=""><dc:format>image/svg+xml</dc:format><dc:type
           rdf:resource="http://purl.org/dc/dcmitype/StillImage" /></cc:Work></rdf:RDF></metadata><defs
     id="defs6"><clipPath
       id="clipPath18"
       clipPathUnits="userSpaceOnUse"><path
         id="path16"
         d="M 0,1080 H 1920 V 0 H 0 Z" /></clipPath></defs><g
     transform="matrix(1.3333333,0,0,-1.3333333,0,1440)"
     id="g10"><g
       id="g12"><g
         clip-path="url(#clipPath18)"
         id="g14"><g
           transform="translate(870.8413,791.834)"
           id="g20"><path
             id="path22"
             style="fill:none;stroke:#000000;stroke-width:4;stroke-linecap:butt;stroke-linejoin:round;stroke-miterlimit:10;stroke-dasharray:none;stroke-opacity:1"
             d="m 0,0 v -38.721 h -30.229 c -3.265,0 -6.386,-1.572 -8.613,-4.342 l -23.999,-29.824 5.891,-6.833 24.42,20.231 c 1.999,1.656 4.393,2.546 6.85,2.546 H 0 v -40.999 h 23.566 l 0,97.942 z" /></g><g
           transform="translate(854.4268,758.2617)"
           id="g24"><path
             id="path26"
             style="fill:#000000;fill-opacity:1;fill-rule:nonzero;stroke:none"
             d="m 0,0 h -12.008 c -1.42,0 -2.573,1.153 -2.573,2.575 0,1.421 1.153,2.574 2.573,2.574 H 0 C 1.42,5.149 2.573,3.996 2.573,2.575 2.573,1.153 1.42,0 0,0" /></g><g
           transform="translate(854.4268,758.2617)"
           id="g28"><path
             id="path30"
             style="fill:none;stroke:#000000;stroke-width:4;stroke-linecap:butt;stroke-linejoin:round;stroke-miterlimit:10;stroke-dasharray:none;stroke-opacity:1"
             d="m 0,0 h -12.008 c -1.42,0 -2.573,1.153 -2.573,2.575 0,1.421 1.153,2.574 2.573,2.574 H 0 C 1.42,5.149 2.573,3.996 2.573,2.575 2.573,1.153 1.42,0 0,0 Z" /></g><g
           transform="translate(854.4268,763.4106)"
           id="g32"><path
             id="path34"
             style="fill:#000000;fill-opacity:1;fill-rule:nonzero;stroke:none"
             d="m 0,0 h -12.008 c -1.42,0 -2.573,1.153 -2.573,2.574 0,1.422 1.153,2.575 2.573,2.575 H 0 C 1.42,5.149 2.573,3.996 2.573,2.574 2.573,1.153 1.42,0 0,0" /></g><g
           transform="translate(854.4268,763.4106)"
           id="g36"><path
             id="path38"
             style="fill:none;stroke:#000000;stroke-width:4;stroke-linecap:butt;stroke-linejoin:round;stroke-miterlimit:10;stroke-dasharray:none;stroke-opacity:1"
             d="m 0,0 h -12.008 c -1.42,0 -2.573,1.153 -2.573,2.574 0,1.422 1.153,2.575 2.573,2.575 H 0 C 1.42,5.149 2.573,3.996 2.573,2.574 2.573,1.153 1.42,0 0,0 Z" /></g><g
           transform="translate(853.5693,768.5596)"
           id="g40"><path
             id="path42"
             style="fill:none;stroke:#000000;stroke-width:4;stroke-linecap:butt;stroke-linejoin:round;stroke-miterlimit:10;stroke-dasharray:none;stroke-opacity:1"
             d="m 0,0 h -10.292 l -2.688,30.926 c -0.4,4.596 3.223,8.549 7.834,8.549 4.611,0 8.233,-3.953 7.834,-8.549 z" /></g><path
           id="path44"
           style="fill:#000000;fill-opacity:1;fill-rule:nonzero;stroke:#000000;stroke-width:4;stroke-linecap:butt;stroke-linejoin:round;stroke-miterlimit:10;stroke-dasharray:none;stroke-opacity:1"
           d="m 843.277,758.262 h 10.292 v -5.149 h -10.292 z" /><g
           transform="translate(882.5405,826)"
           id="g46"><path
             id="path48"
             style="fill:none;stroke:#000000;stroke-width:4;stroke-linecap:butt;stroke-linejoin:round;stroke-miterlimit:10;stroke-dasharray:none;stroke-opacity:1"
             d="m 0,0 c 7.548,0 13.667,-6.119 13.667,-13.667 0,-7.547 -6.119,-13.666 -13.667,-13.666 -7.548,0 -13.667,6.119 -13.667,13.666 C -13.667,-6.119 -7.548,0 0,0 Z" /></g><g
           transform="translate(882.5405,791.834)"
           id="g50"><path
             id="path52"
             style="fill:none;stroke:#000000;stroke-width:3;stroke-linecap:butt;stroke-linejoin:round;stroke-miterlimit:10;stroke-dasharray:none;stroke-opacity:1"
             d="M 0,0 V 6.833" /></g><g
           transform="translate(875.7075,814.6113)"
           id="g54"><path
             id="path56"
             style="fill:none;stroke:#000000;stroke-width:4;stroke-linecap:butt;stroke-linejoin:round;stroke-miterlimit:10;stroke-dasharray:none;stroke-opacity:1"
             d="M 0,0 H 13.666" /></g><g
           transform="translate(875.7075,807.7783)"
           id="g58"><path
             id="path60"
             style="fill:none;stroke:#000000;stroke-width:4;stroke-linecap:butt;stroke-linejoin:round;stroke-miterlimit:10;stroke-dasharray:none;stroke-opacity:1"
             d="M 0,0 H 4.555" /></g><g
           transform="translate(882.5405,807.7783)"
           id="g62"><path
             id="path64"
             style="fill:none;stroke:#000000;stroke-width:4;stroke-linecap:butt;stroke-linejoin:round;stroke-miterlimit:10;stroke-dasharray:none;stroke-opacity:1"
             d="M 0,0 H 6.833" /></g><g
           transform="translate(895,746)"
           id="g66"><path
             id="path68"
             style="fill:#000000;fill-opacity:1;fill-rule:nonzero;stroke:none"
             d="M 0,0 0.04,-0.06 H 30.56 V 46 h 6.58 V -52 H 30.56 V -5.94 H 0.04 Z" /></g><g
           transform="translate(953.6982,721.3003)"
           id="g70"><path
             id="path72"
             style="fill:#000000;fill-opacity:1;fill-rule:nonzero;stroke:none"
             d="M 0,0 H 28.56 L 14.14,63.42 Z m -0.98,-5.6 -4.9,-21.7 h -5.88 L 9.66,70.84 h 9.38 L 40.88,-27.3 H 34.439 L 29.54,-5.6 Z" /></g><g
           transform="translate(1010.2559,694.0005)"
           id="g74"><path
             id="path76"
             style="fill:#000000;fill-opacity:1;fill-rule:nonzero;stroke:none"
             d="M 0,0 H -5.88 V 98 H 2.521 L 31.92,15.26 V 98 h 5.881 V 0 H 30.66 L 0,87.36 Z" /></g><g
           transform="translate(1069.4756,721.3003)"
           id="g78"><path
             id="path80"
             style="fill:#000000;fill-opacity:1;fill-rule:nonzero;stroke:none"
             d="M 0,0 H 28.56 L 14.14,63.42 Z m -0.98,-5.6 -4.9,-21.7 h -5.88 L 9.66,70.84 h 9.38 L 40.88,-27.3 H 34.439 L 29.54,-5.6 Z" /></g><path
           id="path82"
           style="fill:#000000;fill-opacity:1;fill-rule:nonzero;stroke:#000000;stroke-width:4;stroke-linecap:butt;stroke-linejoin:round;stroke-miterlimit:10;stroke-dasharray:none;stroke-opacity:1"
           d="M 1198,248 H 740 v 236 h 458 z" /><g
           transform="translate(871.8413,418.834)"
           id="g84"><path
             id="path86"
             style="fill:#000000;fill-opacity:1;fill-rule:nonzero;stroke:none"
             d="m 0,0 v -38.721 h -30.229 c -3.265,0 -6.386,-1.572 -8.613,-4.342 l -23.999,-29.824 5.891,-6.833 24.42,20.231 c 1.999,1.655 4.393,2.546 6.85,2.546 H 0 v -40.999 h 23.566 l 0,97.942 z" /></g><g
           transform="translate(871.8413,418.834)"
           id="g88"><path
             id="path90"
             style="fill:none;stroke:#ffffff;stroke-width:4;stroke-linecap:butt;stroke-linejoin:miter;stroke-miterlimit:10;stroke-dasharray:none;stroke-opacity:1"
             d="m 0,0 v -38.721 h -30.229 c -3.265,0 -6.386,-1.572 -8.613,-4.342 l -23.999,-29.824 5.891,-6.833 24.42,20.231 c 1.999,1.655 4.393,2.546 6.85,2.546 H 0 v -40.999 h 23.566 l 0,97.942 z" /></g><g
           transform="translate(855.4268,385.2617)"
           id="g92"><path
             id="path94"
             style="fill:#ffffff;fill-opacity:1;fill-rule:nonzero;stroke:none"
             d="m 0,0 h -12.008 c -1.42,0 -2.573,1.153 -2.573,2.574 0,1.421 1.153,2.574 2.573,2.574 H 0 C 1.42,5.148 2.573,3.995 2.573,2.574 2.573,1.153 1.42,0 0,0" /></g><g
           transform="translate(855.4268,390.4102)"
           id="g96"><path
             id="path98"
             style="fill:#ffffff;fill-opacity:1;fill-rule:nonzero;stroke:none"
             d="m 0,0 h -12.008 c -1.42,0 -2.573,1.154 -2.573,2.575 0,1.421 1.153,2.574 2.573,2.574 H 0 C 1.42,5.149 2.573,3.996 2.573,2.575 2.573,1.154 1.42,0 0,0" /></g><g
           transform="translate(854.5693,395.5596)"
           id="g100"><path
             id="path102"
             style="fill:#000000;fill-opacity:1;fill-rule:nonzero;stroke:none"
             d="m 0,0 h -10.292 l -2.688,30.926 c -0.4,4.596 3.223,8.549 7.834,8.549 4.611,0 8.233,-3.953 7.834,-8.549 z" /></g><g
           transform="translate(854.5693,395.5596)"
           id="g104"><path
             id="path106"
             style="fill:none;stroke:#ffffff;stroke-width:4;stroke-linecap:butt;stroke-linejoin:miter;stroke-miterlimit:10;stroke-dasharray:none;stroke-opacity:1"
             d="m 0,0 h -10.292 l -2.688,30.926 c -0.4,4.596 3.223,8.549 7.834,8.549 4.611,0 8.233,-3.953 7.834,-8.549 z" /></g><path
           id="path108"
           style="fill:#ffffff;fill-opacity:1;fill-rule:nonzero;stroke:none"
           d="m 844.277,385.262 h 10.292 v -5.148 h -10.292 z" /><g
           transform="translate(883.5405,453)"
           id="g110"><path
             id="path112"
             style="fill:#ffffff;fill-opacity:1;fill-rule:nonzero;stroke:none"
             d="m 0,0 c 7.548,0 13.667,-6.118 13.667,-13.666 0,-7.548 -6.119,-13.667 -13.667,-13.667 -7.548,0 -13.667,6.119 -13.667,13.667 C -13.667,-6.118 -7.548,0 0,0" /></g><g
           transform="translate(883.5405,418.834)"
           id="g114"><path
             id="path116"
             style="fill:#ffffff;fill-opacity:1;fill-rule:nonzero;stroke:#ffffff;stroke-width:4;stroke-linecap:butt;stroke-linejoin:miter;stroke-miterlimit:10;stroke-dasharray:none;stroke-opacity:1"
             d="M 0,0 V 6.833" /></g><g
           transform="translate(876.7075,441.6113)"
           id="g118"><path
             id="path120"
             style="fill:#ffffff;fill-opacity:1;fill-rule:nonzero;stroke:#000000;stroke-width:4;stroke-linecap:butt;stroke-linejoin:miter;stroke-miterlimit:10;stroke-dasharray:none;stroke-opacity:1"
             d="M 0,0 H 13.666" /></g><g
           transform="translate(876.7075,434.7783)"
           id="g122"><path
             id="path124"
             style="fill:#ffffff;fill-opacity:1;fill-rule:nonzero;stroke:#000000;stroke-width:4;stroke-linecap:butt;stroke-linejoin:miter;stroke-miterlimit:10;stroke-dasharray:none;stroke-opacity:1"
             d="M 0,0 H 4.555" /></g><g
           transform="translate(883.5405,434.7783)"
           id="g126"><path
             id="path128"
             style="fill:#ffffff;fill-opacity:1;fill-rule:nonzero;stroke:#000000;stroke-width:4;stroke-linecap:butt;stroke-linejoin:miter;stroke-miterlimit:10;stroke-dasharray:none;stroke-opacity:1"
             d="M 0,0 H 6.833" /></g><g
           transform="translate(896.04,372.9404)"
           id="g130"><path
             id="path132"
             style="fill:#ffffff;fill-opacity:1;fill-rule:nonzero;stroke:none"
             d="m 0,0 h 30.52 v 46.06 h 6.58 v -98 H 30.52 V -5.88 L 0,-5.88 Z" /></g><g
           transform="translate(896.04,372.9404)"
           id="g134"><path
             id="path136"
             style="fill:none;stroke:#ffffff;stroke-width:1;stroke-linecap:butt;stroke-linejoin:miter;stroke-miterlimit:10;stroke-dasharray:none;stroke-opacity:1"
             d="m 0,0 h 30.52 v 46.06 h 6.58 v -98 H 30.52 V -5.88 L 0,-5.88 Z" /></g><g
           transform="translate(954.6982,348.3008)"
           id="g138"><path
             id="path140"
             style="fill:#ffffff;fill-opacity:1;fill-rule:nonzero;stroke:none"
             d="M 0,0 H 28.56 L 14.14,63.42 Z m -0.98,-5.601 -4.9,-21.7 h -5.88 L 9.66,70.84 h 9.38 l 21.84,-98.141 h -6.441 l -4.899,21.7 z" /></g><g
           transform="translate(954.6982,348.3008)"
           id="g142"><path
             id="path144"
             style="fill:none;stroke:#ffffff;stroke-width:1;stroke-linecap:butt;stroke-linejoin:miter;stroke-miterlimit:10;stroke-dasharray:none;stroke-opacity:1"
             d="M 0,0 H 28.56 L 14.14,63.42 Z m -0.98,-5.601 -4.9,-21.7 h -5.88 L 9.66,70.84 h 9.38 l 21.84,-98.141 h -6.441 l -4.899,21.7 z" /></g><g
           transform="translate(1011.2559,321)"
           id="g146"><path
             id="path148"
             style="fill:#ffffff;fill-opacity:1;fill-rule:nonzero;stroke:none"
             d="M 0,0 H -5.88 V 98 H 2.521 L 31.92,15.26 V 98 h 5.881 V 0 H 30.66 L 0,87.36 Z" /></g><g
           transform="translate(1011.2559,321)"
           id="g150"><path
             id="path152"
             style="fill:none;stroke:#ffffff;stroke-width:1;stroke-linecap:butt;stroke-linejoin:miter;stroke-miterlimit:10;stroke-dasharray:none;stroke-opacity:1"
             d="M 0,0 H -5.88 V 98 H 2.521 L 31.92,15.26 V 98 h 5.881 V 0 H 30.66 L 0,87.36 Z" /></g><g
           transform="translate(1070.4756,348.3008)"
           id="g154"><path
             id="path156"
             style="fill:#ffffff;fill-opacity:1;fill-rule:nonzero;stroke:none"
             d="M 0,0 H 28.56 L 14.14,63.42 Z m -0.98,-5.601 -4.9,-21.7 h -5.88 L 9.66,70.84 h 9.38 l 21.84,-98.141 h -6.441 l -4.899,21.7 z" /></g><g
           transform="translate(1070.4756,348.3008)"
           id="g158"><path
             id="path160"
             style="fill:none;stroke:#ffffff;stroke-width:1;stroke-linecap:butt;stroke-linejoin:miter;stroke-miterlimit:10;stroke-dasharray:none;stroke-opacity:1"
             d="M 0,0 H 28.56 L 14.14,63.42 Z m -0.98,-5.601 -4.9,-21.7 h -5.88 L 9.66,70.84 h 9.38 l 21.84,-98.141 h -6.441 l -4.899,21.7 z" /></g></g></g></g></svg>